<svg id="Layer_1" enable-background="new 0 0 512 512" height="512" viewBox="0 0 512 512" width="512" xmlns="http://www.w3.org/2000/svg"><g><path d="m472.64 328.951-457.763 171.689c-4.43 1.66-8.72-2.72-6.98-7.12l91.471-231.209 57.55-145.479 27.65-69.88c207.981 44.3 288.072 281.999 288.072 281.999z" fill="#e3954b"/><path d="m184.568 46.952-10.023 25.33c129.243 58.933 195.329 192.739 215.939 241.938 4.215 10.061-.776 21.602-10.99 25.433l-364.864 136.847-6.734 17.02c-1.74 4.4 2.55 8.78 6.98 7.12l457.764-171.689s-80.091-237.699-288.072-281.999z" fill="#cf7c38"/><path d="m180.818 388.031c-1.36 16.86-2.68 34.06-1.22 50.83l-164.721 61.779c-4.43 1.66-8.72-2.72-6.98-7.12l91.471-231.209c8.37-1.43 16.76-2.43 24.95-1.45 25.6 3.07 45.36 25.76 53 50.39 7.63 24.63 5.59 51.08 3.5 76.78z" fill="#f78e36"/><path d="m179.108 414.81-164.478 61.69-6.734 17.02c-1.74 4.4 2.55 8.78 6.98 7.12l164.721-61.78c-.691-7.947-.755-15.991-.489-24.05z" fill="#f86f1b"/><path d="m361.699 370.561-182.101 68.3c-1.46-16.77-.14-33.97 1.22-50.83 2.09-25.7 4.13-52.15-3.5-76.78-7.64-24.63-27.4-47.32-53-50.39-8.19-.98-16.58.02-24.95 1.45l57.55-145.479c7.41 6.15 14 13.29 19.63 21.07 16.52 22.79 25.26 50.33 30.62 77.96 5.48 28.21 7.96 57.79 21.78 82.98 16.17 29.5 46.31 49.33 78.201 60.03 17.69 5.929 36.01 9.369 54.55 11.689z" fill="#ffc328"/><path d="m361.699 370.561c-14.491-1.813-28.847-4.317-42.874-8.153l-139.717 52.402c-.265 8.059-.202 16.103.49 24.05z" fill="#ffb200"/><circle cx="295.368" cy="233.605" fill="#f75632" r="31.37"/><path d="m132.57 340.74c-15.972-6.712-34.362.795-41.074 16.767-4.636 11.032 1.099 14.689 10.351 18.107.919.34 1.323 1.42.848 2.277l-9.568 17.239c-.596 1.074-.128 2.427 1.005 2.903l24.411 10.259c1.132.476 2.427-.137 2.777-1.314l5.619-18.898c.279-.939 1.334-1.407 2.22-.988 8.917 4.217 15.543 5.754 20.179-5.278 6.711-15.973-.796-34.362-16.768-41.074z" fill="#e4e4e4"/><path d="m499.809 328.883c3.694-1.215 5.618-5.26 4.249-8.901-7.015-18.664-29.392-73.236-71.075-132.075-29.858-42.145-63.564-77.919-100.185-106.327-44.585-34.587-93.521-58.25-145.555-70.396-3.738-.873-7.471 1.474-8.27 5.23l-11.031 51.852c-.771 3.624 1.484 7.207 5.087 8.059 78.58 18.576 147.361 68.549 204.522 148.628 36.432 51.038 56.881 99.752 63.447 116.741 1.329 3.44 5.142 5.189 8.622 3.975 11.956-4.176 37.924-12.75 50.189-16.786z" fill="#bf6c34"/><path d="m504.059 319.981c-7.015-18.664-29.392-73.236-71.075-132.075-29.858-42.145-63.564-77.919-100.185-106.328-44.585-34.587-93.521-58.25-145.555-70.396-2.568-.599-5.133.32-6.747 2.173 39.42 13.405 76.794 33.717 111.525 60.66 36.621 28.409 70.327 64.183 100.185 106.327 41.683 58.84 64.06 113.411 71.075 132.075 1.369 3.642-.556 7.686-4.249 8.901-5.701 1.876-14.363 4.733-23.202 7.672 2.22 5.219 3.938 9.517 5.168 12.701 1.329 3.44 5.142 5.189 8.622 3.975 11.956-4.174 37.923-12.748 50.188-16.784 3.694-1.215 5.618-5.259 4.25-8.901z" fill="#ab602e"/><g fill="#e4e4e4"><path d="m199 209.12c17.27-1.38 30.152-16.499 28.772-33.769-.953-11.928-7.727-12.54-17.516-11.324-.973.121-1.828-.653-1.799-1.633l.574-19.707c.036-1.227-1.002-2.214-2.226-2.116l-26.395 2.109c-1.224.098-2.092 1.237-1.862 2.443l3.696 19.366c.184.963-.538 1.862-1.517 1.898-9.857.353-16.448 2.033-15.495 13.962 1.378 17.269 16.497 30.151 33.768 28.771z"/><path d="m206.639 292.922c-9.145 14.715-4.63 34.057 10.084 43.202 10.164 6.317 14.679 1.229 19.513-7.368.48-.854 1.611-1.083 2.382-.478l15.516 12.165c.966.758 2.377.509 3.025-.534l13.978-22.49c.648-1.043.247-2.418-.86-2.949l-17.777-8.527c-.884-.424-1.179-1.539-.626-2.347 5.569-8.141 8.132-14.442-2.032-20.758-14.715-9.145-34.058-4.63-43.203 10.084z"/><path d="m392.861 315.901c2.614-17.127-9.151-33.13-26.278-35.744-11.829-1.805-13.977 4.648-15.036 14.455-.105.974-1.054 1.629-2.001 1.377l-19.052-5.074c-1.187-.316-2.385.468-2.57 1.682l-3.995 26.176c-.185 1.214.725 2.32 1.951 2.372l19.698.84c.979.042 1.69.95 1.499 1.912-1.915 9.676-1.79 16.477 10.04 18.282 17.127 2.614 33.13-9.151 35.744-26.278z"/></g><circle cx="114.73" cy="260.47" fill="#f75632" r="31.37"/><circle cx="249.354" cy="402.023" fill="#f75632" r="31.37"/><g><path d="m334.246 233.604c0-21.433-17.438-38.869-38.87-38.869-21.433 0-38.87 17.437-38.87 38.869s17.438 38.869 38.87 38.869 38.87-17.437 38.87-38.869zm-38.87 23.869c-13.162 0-23.87-10.708-23.87-23.869 0-13.162 10.708-23.869 23.87-23.869s23.87 10.708 23.87 23.869-10.708 23.869-23.87 23.869z"/><path d="m85.901 399.253c.887 2.564 2.831 4.637 5.332 5.687l24.413 10.259c1.184.497 2.444.745 3.703.745 1.4 0 2.8-.307 4.092-.918 2.452-1.161 4.302-3.317 5.075-5.918l3.762-12.654c4.308 1.403 8.719 1.916 13.052.257 4.72-1.807 8.294-5.731 10.927-11.998 4.023-9.572 4.077-20.137.153-29.749s-11.356-17.121-20.928-21.143c-19.759-8.305-42.59 1.016-50.894 20.775-2.633 6.267-2.936 11.567-.923 16.202 1.848 4.256 5.302 7.047 9.318 9.143l-6.407 11.544c-1.317 2.373-1.563 5.204-.675 7.768zm12.516-38.845c5.1-12.134 19.122-17.856 31.254-12.757 5.878 2.47 10.442 7.081 12.852 12.984s2.376 12.391-.094 18.269c-1.174 2.794-2.175 3.691-2.461 3.801-.42.159-2 .249-7.596-2.398-2.405-1.137-5.177-1.168-7.605-.083-2.427 1.084-4.253 3.166-5.01 5.713l-3.89 13.086-13.231-5.56 6.625-11.937c1.29-2.323 1.499-5.084.575-7.576-.924-2.494-2.885-4.453-5.38-5.375-5.808-2.145-6.851-3.336-7.029-3.747-.125-.283-.185-1.625.99-4.42z"/><path d="m511.087 317.339c-7.744-20.604-30.26-74.884-71.975-133.769-30.288-42.749-64.507-79.057-101.709-107.915-19.773-15.34-40.662-28.737-62.084-39.819-3.678-1.903-8.204-.465-10.107 3.215-1.903 3.679-.464 8.204 3.215 10.107 20.613 10.664 40.728 23.567 59.783 38.349 36.034 27.953 69.229 63.191 98.662 104.734 40.28 56.858 62.174 109.211 69.932 129.734-11.252 3.704-36.795 12.136-49.04 16.396-7.374-18.973-27.93-67.105-64.101-117.777-58.065-81.345-128.126-132.283-208.241-151.41l10.754-50.547c18.287 4.305 36.411 10.141 53.882 17.352 3.828 1.581 8.213-.243 9.794-4.071s-.242-8.214-4.071-9.794c-18.419-7.602-37.537-13.739-56.825-18.241-3.793-.885-7.693-.224-10.98 1.863-3.275 2.08-5.523 5.316-6.331 9.111l-11.031 51.851c-.961 4.516.38 9.035 3.208 12.326l-56.699 143.319c-17.799 3.55-31.256 19.289-31.256 38.116 0 8.406 2.692 16.192 7.246 22.558l-46.381 117.24c-1.524 3.851.363 8.209 4.215 9.733.905.358 1.838.528 2.757.528 2.987 0 5.811-1.797 6.976-4.743l44.261-111.885c5.802 3.448 12.57 5.436 19.795 5.436 14.408 0 27-7.885 33.714-19.561 9.7 8.259 17.57 20.343 21.711 33.692 7.289 23.529 5.205 49.162 3.188 73.956-1.156 14.319-2.453 30.421-1.612 46.369l-155.162 58.196 22.333-56.451c1.524-3.851-.363-8.209-4.215-9.733-3.852-1.525-8.209.363-9.733 4.215l-24.028 60.735c-1.912 4.835-.837 10.142 2.804 13.849 2.503 2.548 5.783 3.897 9.17 3.897 1.537 0 3.096-.277 4.614-.846l205.506-77.08c6.931 6.396 16.182 10.312 26.335 10.312 20.017 0 36.544-15.21 38.641-34.678l107.864-40.454c3.878-1.455 5.843-5.778 4.389-9.656s-5.778-5.842-9.656-4.389l-29.795 11.175c-.031-.004-.062-.013-.093-.017-19.997-2.585-36.257-6.116-51.165-11.112-14.496-4.867-27.583-11.297-39.022-19.134l6.99-11.246c1.433-2.304 1.819-5.12 1.06-7.725-.76-2.605-2.598-4.772-5.045-5.946l-11.903-5.71c2.063-4.033 3.266-8.307 2.311-12.847-1.04-4.945-4.353-9.094-10.126-12.682-8.65-5.376-18.611-6.924-27.898-5.124-3.649-12.479-5.927-25.77-8.125-38.699-1.017-5.977-2.067-12.158-3.247-18.222-.13-.665-.255-1.296-.379-1.918 4.506-2.295 8.558-5.48 11.937-9.445 6.733-7.903 9.986-17.954 9.159-28.303-.542-6.777-2.709-11.622-6.627-14.815-3.598-2.931-7.947-3.822-12.478-3.837l.385-13.196c.079-2.712-1.004-5.339-2.97-7.208-1.966-1.87-4.651-2.824-7.351-2.602l-22.587 1.804c-.333-.473-.666-.94-1-1.4-5.026-6.937-10.661-13.249-16.778-18.826l11.67-29.498c74.178 19.277 139.398 67.732 193.932 144.131 31.263 43.796 50.511 85.583 59.442 107.288l-10.048 3.768c-3.878 1.455-5.843 5.778-4.389 9.656 1.129 3.011 3.987 4.868 7.023 4.868.875 0 1.766-.154 2.633-.479l11.788-4.421c2.584 2.281 5.929 3.571 9.423 3.57 1.581 0 3.192-.263 4.774-.815 12.114-4.229 39.045-13.116 50.062-16.741 3.686-1.212 6.761-3.914 8.437-7.413 1.68-3.504 1.857-7.605.488-11.249zm-396.35-33.003c-13.162 0-23.87-10.708-23.87-23.869 0-13.162 10.708-23.87 23.87-23.87s23.87 10.708 23.87 23.87-10.708 23.869-23.87 23.869zm134.624 141.55c-13.162 0-23.87-10.708-23.87-23.869s10.708-23.869 23.87-23.869c13.163 0 23.871 10.708 23.871 23.869s-10.708 23.869-23.871 23.869zm-3.471-136.681c2.575 1.6 3.303 2.73 3.366 3.03.092.439-.07 2.014-3.565 7.123-1.501 2.195-1.968 4.927-1.28 7.496.688 2.567 2.457 4.699 4.852 5.848l12.31 5.904-7.576 12.189-10.744-8.423c-2.091-1.64-4.786-2.282-7.392-1.761-2.609.52-4.853 2.148-6.155 4.466-3.034 5.396-4.374 6.239-4.809 6.35-.298.081-1.634-.077-4.208-1.677-5.416-3.365-9.196-8.638-10.645-14.847-1.45-6.209-.394-12.611 2.972-18.025 4.516-7.266 12.328-11.263 20.313-11.263 4.299 0 8.648 1.158 12.561 3.59zm-41.951-120.035c1.967 1.79 4.606 2.625 7.25 2.301 6.145-.764 7.617-.186 7.965.098.238.194.908 1.358 1.149 4.38.508 6.356-1.49 12.528-5.625 17.381-3.044 3.573-6.98 6.111-11.38 7.406-.052.016-.106.031-.157.049-1.528.438-3.11.729-4.731.858-13.118 1.04-24.648-8.772-25.696-21.892-.241-3.022.235-4.279.439-4.508.299-.335 1.662-1.14 7.849-1.361 2.658-.095 5.133-1.343 6.791-3.422 1.657-2.078 2.322-4.766 1.824-7.376l-2.56-13.41 14.307-1.143-.398 13.648c-.076 2.654 1.008 5.203 2.973 6.991zm-33.454-26.867c.221.305.442.615.664.927-.173 1.084-.172 2.199.038 3.299l2.475 12.967c-4.471.734-8.624 2.305-11.71 5.77-3.361 3.774-4.732 8.902-4.19 15.678.827 10.349 5.635 19.757 13.538 26.491 7.096 6.046 15.925 9.285 25.146 9.285 1.049 0 2.103-.042 3.159-.126.024-.002.048-.006.072-.008.047.238.091.459.139.703 1.144 5.883 2.18 11.975 3.182 17.866 2.357 13.862 4.786 28.136 8.933 41.861-4.572 2.998-8.583 7.002-11.654 11.943-5.48 8.818-7.199 19.242-4.839 29.353s8.516 18.697 17.335 24.177c5.774 3.588 10.96 4.72 15.855 3.466 4.494-1.154 7.795-4.124 10.498-7.761l10.39 8.146c1.695 1.328 3.78 2.037 5.904 2.036.553 0 1.109-.048 1.662-.146 2.08-.368 3.96-1.421 5.369-2.953 12.485 8.494 26.682 15.446 42.327 20.698 8.761 2.936 17.924 5.389 27.905 7.455l-46.124 17.299c-4.848-15.945-19.685-27.583-37.194-27.583-21.433 0-38.87 17.437-38.87 38.869 0 5.683 1.236 11.079 3.437 15.949l-27.391 10.274c-.34-13.475.765-27.232 1.763-39.607 2.032-24.988 4.335-53.309-3.812-79.608-5.699-18.37-16.919-34.301-31.106-44.407.146-1.364.224-2.748.224-4.151 0-18.532-13.041-34.066-30.425-37.934l36.709-92.79c3.782 3.858 7.328 8.058 10.591 12.562z"/><path d="m341.692 341.918c2.903 4.136 7.581 6.645 14.301 7.67 1.98.302 3.945.449 5.89.449 18.862 0 35.469-13.8 38.4-33.008 1.566-10.263-.957-20.522-7.107-28.887s-15.19-13.835-25.453-15.401c-6.723-1.027-11.934-.026-15.939 3.056-3.678 2.83-5.542 6.859-6.595 11.266l-12.758-3.398c-2.622-.698-5.426-.246-7.697 1.239-2.27 1.485-3.807 3.875-4.217 6.558l-3.995 26.174c-.41 2.683.344 5.423 2.067 7.519 1.724 2.096 4.268 3.364 6.979 3.479l13.19.562c-.309 4.521.268 8.924 2.934 12.722zm-9.427-28.011 2.165-14.187 13.191 3.513c2.57.685 5.301.214 7.492-1.291 2.193-1.506 3.614-3.887 3.897-6.527.664-6.155 1.564-7.457 1.92-7.731.243-.187 1.531-.573 4.527-.115 6.304.962 11.855 4.321 15.631 9.458 3.777 5.137 5.327 11.437 4.365 17.739-1.986 13.011-14.189 21.981-27.198 19.995-2.997-.457-4.111-1.209-4.287-1.46-.258-.368-.729-1.878.473-7.95.517-2.609-.13-5.306-1.775-7.397-1.644-2.089-4.108-3.352-6.762-3.465z"/></g></g></svg>