<?xml version="1.0" encoding="iso-8859-1"?>
<!-- Generator: Adobe Illustrator 22.1.0, SVG Export Plug-In . SVG Version: 6.00 Build 0)  -->
<svg xmlns="http://www.w3.org/2000/svg" xmlns:xlink="http://www.w3.org/1999/xlink" version="1.1" id="Layer_1_1_" x="0px" y="0px" viewBox="0 0 64 64" style="enable-background:new 0 0 64 64;" xml:space="preserve" width="512" height="512">
<g>
	<g>
		<polygon style="fill:#CF9E76;" points="56,22 56,62 52,62 52,44 52,36 52,32 52,25 52,24 52,22   "/>
		<path style="fill:#E6E9ED;" d="M36.24,16.54C34.72,15.89,33.3,15.04,32,14c0.25-1.65,0.27-3.31,0.08-4.94    C35.3,11.61,39.29,13,43.4,13h0.56c0.03,0.33,0.04,0.66,0.04,1c0,1.4-0.24,2.75-0.68,4h-0.01c-0.76,0-1.51-0.06-2.25-0.15    C39.4,17.63,37.77,17.19,36.24,16.54z"/>
		<path style="fill:#AAB2BD;" d="M43.96,13H43.4c-4.11,0-8.1-1.39-11.32-3.94c-0.2-1.66-0.63-3.28-1.28-4.83    c3.49,2.16,7.46,3.44,11.57,3.72C43.25,9.46,43.81,11.17,43.96,13z"/>
		<path style="fill:#E6E9ED;" d="M41.06,17.85C41.8,17.94,42.55,18,43.31,18c-0.86,2.47-2.52,4.57-4.67,6c0,0,0,0.01-0.01,0    c-1.17,0.79-2.5,1.37-3.93,1.69c-0.85,0.2-1.73,0.31-2.64,0.31C34.35,22.58,37.44,19.78,41.06,17.85z"/>
		<path style="fill:#E6E9ED;" d="M32,2c4.43,0,8.29,2.39,10.37,5.95c-4.11-0.28-8.08-1.56-11.57-3.72c-0.28-0.7-0.61-1.37-0.99-2.03    C30.52,2.07,31.25,2,32,2z"/>
		<path style="fill:#AAB2BD;" d="M36.24,16.54c1.53,0.65,3.16,1.09,4.82,1.31c-3.62,1.93-6.71,4.73-9,8.15c-0.02,0-0.04,0-0.06,0    c-0.93,0-1.84-0.11-2.7-0.31c-0.84-0.19-1.65-0.47-2.41-0.83l0.27-0.48C29.22,20.82,32.42,18.05,36.24,16.54z"/>
		<path style="fill:#E6E9ED;" d="M27.68,16.42c1.31-1,2.76-1.81,4.32-2.42c1.3,1.04,2.72,1.89,4.24,2.54    c-3.82,1.51-7.02,4.28-9.08,7.84l-0.27,0.48c-0.53-0.24-1.04-0.53-1.52-0.86c-0.93-0.61-1.77-1.36-2.49-2.2    c0.39-0.66,0.81-1.29,1.26-1.89C25.16,18.58,26.35,17.41,27.68,16.42z"/>
		<path style="fill:#E6E9ED;" d="M32.08,9.06c0.19,1.63,0.17,3.29-0.08,4.94c-1.56,0.61-3.01,1.42-4.32,2.42    c0.6-4.07-0.19-8.23-2.25-11.8l-0.27-0.48c1.37-0.96,2.94-1.63,4.65-1.94c0.38,0.66,0.71,1.33,0.99,2.03    C31.45,5.78,31.88,7.4,32.08,9.06z"/>
		<path style="fill:#AAB2BD;" d="M25.43,4.62c2.06,3.57,2.85,7.73,2.25,11.8c-1.33,0.99-2.52,2.16-3.54,3.49    c0.13-4.11-0.75-8.18-2.56-11.87c0.89-1.55,2.11-2.88,3.58-3.9L25.43,4.62z"/>
		<path style="fill:#E6E9ED;" d="M21.58,8.04c1.81,3.69,2.69,7.76,2.56,11.87c-0.45,0.6-0.87,1.23-1.26,1.89    C21.08,19.71,20,16.98,20,14C20,11.83,20.57,9.8,21.58,8.04z"/>
		<polygon style="fill:#CF9E76;" points="12,43 12,44 12,62 8,62 8,22 12,22 12,24 12,25 12,32 12,36   "/>
	</g>
	<g>
		<path d="M57,21h-6v2h-9.641C43.608,20.662,45,17.493,45,14c0-7.168-5.832-13-13-13S19,6.832,19,14c0,3.493,1.392,6.662,3.641,9H13    v-2H7v40H5v2h54v-2h-2V21z M55,23v38h-2V45V23H55z M27.431,26.155L26.5,27.086L24.414,25h0.69    C25.834,25.46,26.612,25.846,27.431,26.155z M31.875,15.147c0.665,0.498,1.355,0.96,2.076,1.365    c-3.048,1.623-5.63,4.048-7.43,7.012c-0.876-0.506-1.678-1.124-2.38-1.843C26.004,18.789,28.71,16.5,31.875,15.147z     M42.805,11.974c-3.545-0.125-6.991-1.348-9.818-3.49c-0.106-0.726-0.242-1.447-0.43-2.156c2.869,1.407,5.988,2.281,9.175,2.561    C42.236,9.844,42.6,10.881,42.805,11.974z M43,14c0,1.028-0.152,2.02-0.417,2.965c-3.437-0.166-6.773-1.366-9.527-3.43    c0.098-0.825,0.154-1.653,0.144-2.481c2.933,1.831,6.328,2.855,9.799,2.929C42.999,13.989,43,13.994,43,14z M20.414,43l-3.5-3.5    L21,35.414l4.086,4.086l-3.5,3.5H20.414z M17.586,43h-4.172l2.086-2.086L17.586,43z M13,32.414l2.5-2.5L19.586,34L15.5,38.086    l-2.5-2.5V32.414z M38.365,18.318c-2.651,1.78-4.965,4.043-6.8,6.659c-1.122-0.044-2.199-0.255-3.21-0.612    c1.881-3.005,4.662-5.376,7.929-6.753C36.965,17.884,37.657,18.126,38.365,18.318z M32,27c0.807,0,1.594-0.084,2.361-0.225    l1.725,1.725L32,32.586L27.914,28.5l1.725-1.725C30.406,26.916,31.193,27,32,27z M37.5,29.914L41.586,34L37.5,38.086L33.414,34    L37.5,29.914z M30.586,34L26.5,38.086L22.414,34l4.086-4.086L30.586,34z M26.5,40.914L28.586,43h-4.172L26.5,40.914z M31.414,43    l-3.5-3.5L32,35.414l4.086,4.086l-3.5,3.5H31.414z M37.5,40.914L39.586,43h-4.172L37.5,40.914z M42.414,43l-3.5-3.5L43,35.414    l4.086,4.086l-3.5,3.5H42.414z M51,40.586L49.914,39.5L51,38.414V40.586z M51,35.586l-2.5,2.5L44.414,34l4.086-4.086l2.5,2.5    V35.586z M48.5,40.914L50.586,43h-4.172L48.5,40.914z M51,29.586L49.914,28.5L51,27.414V29.586z M48.5,27.086L46.414,25h4.172    L48.5,27.086z M47.086,28.5L43,32.586L38.914,28.5l3.5-3.5h1.172L47.086,28.5z M37.5,27.086l-0.931-0.931    c0.818-0.309,1.597-0.695,2.327-1.155h0.69L37.5,27.086z M34.224,24.774c1.95-2.398,4.356-4.414,7.07-5.904    c0.176,0.02,0.35,0.045,0.526,0.059C40.329,21.886,37.554,24.087,34.224,24.774z M31.07,13.318    c-0.764,0.328-1.509,0.694-2.221,1.116c0.119-3.452-0.69-6.9-2.357-9.94c0.862-0.501,1.797-0.885,2.786-1.139    C30.852,6.414,31.48,9.902,31.07,13.318z M25.086,28.5L21,32.586L16.914,28.5l3.5-3.5h1.172L25.086,28.5z M15.5,27.086L13.414,25    h4.172L15.5,27.086z M13,27.414l1.086,1.086L13,29.586V27.414z M13,38.414l1.086,1.086L13,40.586V38.414z M51,45v16H13V45H51z     M40.19,6.683c-3.042-0.492-5.981-1.566-8.62-3.167c-0.071-0.161-0.136-0.324-0.211-0.484C31.572,3.02,31.784,3,32,3    C35.255,3,38.175,4.429,40.19,6.683z M24.846,5.661c1.662,3.13,2.324,6.724,1.884,10.242c-0.576,0.455-1.132,0.933-1.653,1.45    c-0.215-3.185-1.018-6.32-2.367-9.219C23.298,7.207,24.017,6.374,24.846,5.661z M21.562,10.55    c1.099,2.885,1.641,5.973,1.574,9.063c-0.106,0.144-0.215,0.284-0.317,0.431C21.672,18.307,21,16.232,21,14    C21,12.794,21.202,11.636,21.562,10.55z M9,23h2v22v16H9V23z"/>
		<rect x="1" y="61" width="2" height="2"/>
		<rect x="61" y="61" width="2" height="2"/>
	</g>
</g>
</svg>
