<?xml version="1.0" encoding="iso-8859-1"?>
<!-- Generator: Adobe Illustrator 19.0.0, SVG Export Plug-In . SVG Version: 6.00 Build 0)  -->
<svg version="1.1" id="Capa_1" xmlns="http://www.w3.org/2000/svg" xmlns:xlink="http://www.w3.org/1999/xlink" x="0px" y="0px"
	 viewBox="0 0 511.999 511.999" style="enable-background:new 0 0 511.999 511.999;" xml:space="preserve">
<g>
	<rect x="348.314" y="268.327" style="fill:#43A047;" width="30.488" height="104.917"/>
	<rect x="286.489" y="268.327" style="fill:#43A047;" width="30.488" height="104.917"/>
	<polygon style="fill:#43A047;" points="410.141,504.516 440.629,504.516 440.629,164.524 410.141,144.523 	"/>
</g>
<rect x="410.138" y="270.497" style="opacity:0.1;enable-background:new    ;" width="30.488" height="45.243"/>
<rect x="348.314" y="268.327" style="opacity:0.1;enable-background:new    ;" width="30.488" height="47.413"/>
<rect x="286.489" y="268.327" style="opacity:0.1;enable-background:new    ;" width="30.488" height="47.413"/>
<rect x="245.997" y="255.256" style="fill:#66BB6A;" width="225.895" height="30.488"/>
<rect x="410.138" y="373.244" style="opacity:0.1;enable-background:new    ;" width="30.488" height="45.243"/>
<rect x="245.997" y="358.003" style="fill:#66BB6A;" width="225.895" height="30.488"/>
<polygon style="fill:#4FC3F7;" points="256,179.392 202.601,144.523 102.024,137.996 74.692,179.392 48.625,179.392 48.625,255.348 
	56.401,262.849 48.625,270.349 48.625,338.804 58.513,347.344 48.625,353.805 48.625,422.26 58.513,430.942 48.625,437.261 
	48.625,504.516 102.024,504.516 152.312,479.011 202.601,504.516 256,504.516 256,437.261 248.414,428.942 256,422.26 256,353.805 
	250.414,347.344 256,338.804 256,270.349 246,260.431 256,255.348 "/>
<rect x="102.027" y="202.293" style="fill:#FFB74D;" width="100.577" height="121.108"/>
<g>
	<rect x="130.789" y="232.785" style="fill:#029BE5;" width="43.043" height="60.134"/>
	<polygon style="fill:#029BE5;" points="256,32.148 48.625,174.704 48.625,179.392 74.692,179.392 256,179.392 440.629,179.392 
		440.629,152.823 	"/>
</g>
<polygon style="fill:#FFB74D;" points="102.024,373.243 102.024,504.516 130.793,504.516 152.312,491.491 173.832,504.516 
	202.601,504.516 202.601,373.243 "/>
<rect x="130.789" y="403.726" style="fill:#029BE5;" width="43.043" height="100.787"/>
<polygon style="opacity:0.1;enable-background:new    ;" points="387.667,179.392 440.629,179.392 440.629,152.824 256,32.148 
	48.625,174.704 48.625,231.437 256,88.879 "/>
<path style="fill:#FFB74D;" d="M463.376,195.029L256,52.472L48.625,195.029L25.596,161.53l218.89-150.472
	c6.937-4.767,16.094-4.766,23.029,0l218.891,150.473L463.376,195.029z"/>
<path d="M130.793,300.398h43.039c4.142,0,7.501-3.358,7.501-7.5v-60.134c0-4.142-3.358-7.501-7.501-7.501h-43.039
	c-4.142,0-7.501,3.358-7.501,7.501v60.134C123.293,297.04,126.65,300.398,130.793,300.398z M138.294,240.264h28.038v45.133h-28.038
	V240.264z"/>
<path d="M459.127,201.193c3.314,2.278,8.091,1.471,10.43-1.932c0,0,23.009-33.469,23.029-33.498
	c2.315-3.368,1.428-8.121-1.932-10.431L271.763,4.861c-9.429-6.48-22.097-6.481-31.526,0c0,0-139.762,96.077-140.273,96.428
	c-7.911,5.438,0.429,17.91,8.497,12.363l140.274-96.429c4.347-2.987,10.187-2.987,14.531-0.001l212.709,146.224l-14.531,21.137
	c0,0-201.143-138.272-201.195-138.308c-2.495-1.715-5.999-1.718-8.498-0.001L50.557,184.583l-14.53-21.137
	c0,0,47.117-32.39,47.289-32.509c7.807-5.366-0.416-17.917-8.498-12.362c0,0-53.301,36.64-53.471,36.757
	c-3.374,2.32-4.241,7.071-1.933,10.431l21.709,31.579v307.156c0,4.142,3.358,7.5,7.5,7.5H256c4.142,0,7.5-3.358,7.5-7.5V395.971
	H402.64v108.528c0,4.142,3.358,7.5,7.5,7.5h30.488c4.142,0,7.501-3.358,7.501-7.5V395.971h23.769c4.142,0,7.501-3.358,7.501-7.5
	v-30.487c0-4.143-3.358-7.5-7.501-7.5h-23.769v-57.259h23.769c4.142,0,7.501-3.358,7.501-7.5v-30.488
	c0-4.142-3.358-7.501-7.501-7.501h-23.769v-54.103L459.127,201.193z M263.501,247.734v-60.858H402.64v60.858H263.501z
	 M340.813,293.223v57.259h-16.337v-57.259H340.813z M371.301,350.482h-15.487v-57.259h15.487V350.482z M309.475,350.482h-15.487
	v-57.259h15.487V350.482z M278.987,350.482h-15.486v-57.259h15.486V350.482z M195.099,496.997h-13.767v-93.283
	c0-4.142-3.358-7.5-7.501-7.5h-43.039c-4.142,0-7.501,3.358-7.501,7.5v93.283h-13.768V380.727h85.575L195.099,496.997
	L195.099,496.997z M166.331,496.997h-28.038v-85.783h28.038V496.997z M202.6,365.726H102.024c-4.142,0-7.5,3.358-7.5,7.501v49.018
	H56.125v-68.456H248.5v68.456h-38.399v-49.018C210.1,369.084,206.742,365.726,202.6,365.726z M295.075,88.417h-78.149L256,61.556
	L295.075,88.417z M74.692,186.876H248.5v68.35c0,0.003,0,0.006,0,0.01v0.096h-38.399v-53.055c0-4.142-3.358-7.5-7.501-7.5H102.024
	c-4.142,0-7.5,3.358-7.5,7.5v53.055H56.125v-56.373l17.663-12.143C74.085,186.852,74.385,186.876,74.692,186.876z M195.099,315.886
	h-85.575V209.777h85.575V315.886z M102.024,330.887H202.6c4.142,0,7.501-3.358,7.501-7.5v-53.055h38.399v68.456H56.125v-68.456
	h38.399v53.055C94.524,327.528,97.882,330.887,102.024,330.887z M410.141,171.875H95.523l99.581-68.456h121.793l99.581,68.456
	H410.141z M56.125,437.244h38.399v59.754H56.125V437.244z M210.1,496.998v-59.754h38.399v59.754H210.1z M433.128,496.998h-15.487
	V395.971h15.487V496.998z M464.397,380.97H263.501v-15.486h200.896V380.97z M386.302,350.482v-57.259h16.337v57.259H386.302z
	 M433.128,350.482h-15.487v-57.259h15.487V350.482z M464.397,278.222H263.501v-15.487h200.896V278.222z M417.641,247.734v-60.858
	h15.487v60.858H417.641z"/>
<g>
</g>
<g>
</g>
<g>
</g>
<g>
</g>
<g>
</g>
<g>
</g>
<g>
</g>
<g>
</g>
<g>
</g>
<g>
</g>
<g>
</g>
<g>
</g>
<g>
</g>
<g>
</g>
<g>
</g>
</svg>
