<svg id="Layer_1" enable-background="new 0 0 256 256" height="512" viewBox="0 0 256 256" width="512" xmlns="http://www.w3.org/2000/svg"><g><g><g><path d="m238 47.024h-2.958c-.804 0-1.456.652-1.456 1.456s.652 1.456 1.456 1.456h2.958c.804 0 1.456-.652 1.456-1.456s-.652-1.456-1.456-1.456z" fill="#3a312a"/></g></g><g><g><path d="m115.11 234.269-24.42-104.07c-1.23.7-2.58 1.23-4.03 1.57s-2.9.46-4.31.38l24.42 104.08c.54 2.3 2.84 3.73 5.15 3.19 2.3-.54 3.73-2.85 3.19-5.15z" fill="#87796f"/></g></g><g><g><path d="m116.57 233.926-24.42-104.07c-.107-.46-.427-.843-.859-1.032-.436-.19-.933-.164-1.342.071-1.116.635-2.338 1.11-3.631 1.413-1.283.3-2.586.415-3.884.343-.473-.027-.93.17-1.233.533-.305.362-.42.847-.312 1.308l24.42 104.08c.624 2.66 3.008 4.46 5.633 4.46.436 0 .878-.049 1.319-.153h.001c3.105-.729 5.038-3.848 4.308-6.953zm-4.992 4.032c-1.493.349-2.998-.58-3.349-2.072l-23.989-102.247c.925-.059 1.849-.196 2.762-.41.917-.215 1.806-.502 2.657-.857l23.991 102.24c.351 1.494-.579 2.995-2.072 3.346z" fill="#3a312a"/></g></g><g><g><path d="m70.697 63.718c-19.273 4.521-34.794 16.592-44.208 32.338l-5.833 12.33c-2.713 7.549-4.16 15.613-4.136 23.877.024 8.174 7.778 14.137 15.736 12.271 6.416-1.505 10.585-7.627 9.765-14.166-4.142-33.05 7.598-61.706 28.676-66.65z" fill="#d7e057"/></g></g><g><g><path d="m72.157 63.375c-.189-.806-.996-1.306-1.803-1.118-19.056 4.47-35.092 16.2-45.152 33.03-.426.711-.193 1.632.518 2.057.709.424 1.632.194 2.057-.518 6.688-11.188 16.131-20.023 27.385-25.815-11.897 12.034-17.801 34.233-14.629 59.544.729 5.813-2.977 11.196-8.619 12.519-3.397.797-6.917.011-9.658-2.156-2.682-2.119-4.225-5.274-4.234-8.659-.024-7.965 1.337-15.826 4.046-23.366.28-.78-.124-1.639-.904-1.919-.773-.279-1.638.124-1.919.904-2.827 7.869-4.248 16.075-4.223 24.389.013 4.304 1.971 8.315 5.374 11.004 2.577 2.037 5.699 3.107 8.896 3.107 1.1 0 2.209-.127 3.308-.384 7.14-1.675 11.83-8.473 10.91-15.813-4.13-32.954 7.449-60.292 27.531-65.003.806-.189 1.306-.996 1.116-1.803z" fill="#3a312a"/></g></g><g><g><path d="m149.682 100.96c-14.123-28.642-46.563-44.848-78.985-37.242 21.077-4.945 44.335 15.499 55.324 46.941 2.175 6.223 8.633 9.853 15.05 8.348 7.984-1.873 12.238-10.692 8.611-18.047z" fill="#d7e057"/></g></g><g><g><path d="m151.027 100.296c-7.046-14.288-18.881-25.973-33.327-32.902-14.657-7.031-31.463-8.856-47.319-5.142-.009.002-.017.004-.026.006-.807.19-1.307.997-1.117 1.803.189.807.996 1.308 1.803 1.118 20.083-4.709 42.607 14.624 53.564 45.976 2.067 5.915 7.567 9.693 13.542 9.693 1.079 0 2.175-.124 3.268-.38 4.285-1.005 7.822-3.867 9.703-7.852 1.86-3.941 1.826-8.431-.091-12.32zm-2.623 11.038c-1.488 3.153-4.286 5.417-7.676 6.212-5.646 1.322-11.359-1.85-13.292-7.382-8.42-24.094-23.587-41.356-39.605-46.833 25.354.324 48.852 14.656 60.505 38.291 1.511 3.064 1.536 6.604.068 9.712z" fill="#3a312a"/></g></g><g><g><path d="m70.697 63.718c-20.225 4.745-31.852 31.32-29.101 62.661.725 8.256 8.633 13.939 16.702 12.046 7.091-1.664 11.647-8.613 10.291-15.769-6.04-31.873-5.39-57.179 2.108-58.938z" fill="#fce8cb"/></g></g><g><g><path d="m72.157 63.375c-.189-.806-.996-1.306-1.803-1.118-.002.001-.005.002-.007.002-20.703 4.862-33.14 31.281-30.246 64.25.382 4.355 2.638 8.327 6.188 10.896 2.612 1.89 5.726 2.88 8.888 2.88 1.155 0 2.317-.132 3.464-.401 7.914-1.857 12.931-9.547 11.422-17.508-2.926-15.44-4.346-29.799-3.997-40.434.478-14.585 3.928-16.52 4.975-16.765.806-.188 1.306-.995 1.116-1.802zm-5.042 59.56c1.209 6.378-2.814 12.54-9.16 14.029-3.433.807-7.045.082-9.907-1.989-2.845-2.059-4.651-5.24-4.958-8.729-2.443-27.836 6.82-51.412 22.468-59.102-4.292 9.984-2.707 33.286 1.557 55.791z" fill="#3a312a"/></g></g><g><g><path d="m124.628 106.9c-11.474-29.295-33.707-47.927-53.932-43.182 7.498-1.759 19.334 20.618 28.099 51.852 1.968 7.012 9.139 11.21 16.23 9.547 8.07-1.893 12.626-10.5 9.603-18.217z" fill="#fce8cb"/></g></g><g><g><path d="m126.024 106.353c-12.07-30.821-34.964-48.951-55.67-44.096-.807.19-1.307.997-1.117 1.803.189.807.996 1.308 1.803 1.118 1.047-.248 4.996-.047 11.91 12.804 5.041 9.37 10.156 22.863 14.401 37.993 1.865 6.646 7.883 11.009 14.517 11.009 1.154 0 2.327-.132 3.5-.407 4.283-1.005 7.914-3.816 9.96-7.714 2.037-3.88 2.291-8.44.696-12.51zm-3.352 11.116c-1.642 3.126-4.554 5.382-7.989 6.188-6.344 1.489-12.689-2.242-14.442-8.492-6.189-22.056-15.132-43.632-23.416-50.662h.111c17.403 0 36.128 16.982 46.296 42.945 1.277 3.259 1.073 6.912-.56 10.021z" fill="#3a312a"/></g></g><g><g><path d="m97.896 112.431c-8.661-29.582-19.955-50.413-27.199-48.714s-8.096 25.38-2.698 55.727c1.548 8.702 10.057 14.345 18.663 12.326 8.605-2.018 13.717-10.856 11.234-19.339z" fill="#d7e057"/></g></g><g><g><path d="m99.335 112.01c-7.146-24.41-18.99-52.08-28.98-49.753-9.956 2.336-8.287 32.408-3.832 57.45.824 4.633 3.439 8.608 7.363 11.191 2.795 1.839 5.973 2.787 9.223 2.787 1.294 0 2.6-.15 3.896-.455 4.552-1.068 8.355-3.882 10.711-7.923 2.366-4.057 2.941-8.781 1.619-13.297zm-4.211 11.788c-1.936 3.322-5.062 5.635-8.805 6.513-3.742.878-7.572.196-10.784-1.917-3.229-2.126-5.381-5.397-6.06-9.211-5.733-32.229-3.707-52.767 1.564-54.004.175-.041.355-.061.543-.061 5.452 0 15.98 17.362 24.873 47.736 1.089 3.716.616 7.603-1.331 10.944z" fill="#3a312a"/></g></g><g><g><path d="m47.447 26.206c-.974 11.564-13.031 13.39-13.031 13.39 10.352.487 12.932 14.059 12.932 14.059.221-9.677 13.328-14.202 13.328-14.202-9.819-.588-13.229-13.247-13.229-13.247z" fill="#d4d853"/></g></g><g><g><path d="m60.766 37.955c-8.61-.515-11.839-12.024-11.87-12.14-.191-.702-.843-1.165-1.584-1.102-.725.066-1.298.642-1.359 1.367-.86 10.215-11.319 11.963-11.761 12.032-.763.115-1.313.79-1.273 1.56s.657 1.384 1.428 1.421c9.033.425 11.505 12.719 11.528 12.843.138.711.76 1.217 1.473 1.217.042 0 .084-.002.126-.005.765-.064 1.357-.693 1.375-1.459.193-8.509 12.198-12.777 12.319-12.819.676-.235 1.092-.914.994-1.622s-.683-1.25-1.396-1.293zm-13.574 10.348c-1.357-3.131-3.711-6.909-7.591-8.878 2.932-1.404 6.412-3.914 8.206-8.274 1.552 3.071 4.201 6.881 8.339 8.724-3.009 1.64-6.926 4.406-8.954 8.428z" fill="#3a312a"/></g></g><g><g><path d="m25.737 43.187c-.689 8.179-9.217 9.471-9.217 9.471 7.322.345 9.147 9.944 9.147 9.944.156-6.844 9.427-10.045 9.427-10.045-6.945-.416-9.357-9.37-9.357-9.37z" fill="#d4d853"/></g></g><g><g><path d="m35.184 51.059c-5.748-.344-7.961-8.127-7.998-8.263-.19-.703-.87-1.162-1.582-1.103-.726.065-1.3.642-1.361 1.368-.579 6.871-7.651 8.066-7.947 8.113-.763.115-1.313.79-1.273 1.56.04.771.657 1.385 1.428 1.421 6.039.284 7.729 8.644 7.744 8.726.136.712.759 1.22 1.473 1.22.041 0 .083-.001.125-.005.765-.063 1.358-.694 1.376-1.461.13-5.709 8.336-8.634 8.416-8.662.677-.234 1.094-.913.997-1.622-.1-.708-.685-1.249-1.398-1.292zm-9.59 6.796c-.924-1.886-2.341-3.948-4.45-5.281 1.857-1.041 3.7-2.631 4.874-4.918 1.058 1.874 2.656 3.955 4.944 5.225-1.851 1.101-3.991 2.741-5.368 4.974z" fill="#3a312a"/></g></g><g><g><path d="m25.737 16.529c-.689 8.179-9.217 9.471-9.217 9.471 7.322.345 9.147 9.944 9.147 9.944.156-6.845 9.427-10.045 9.427-10.045-6.945-.416-9.357-9.37-9.357-9.37z" fill="#d4d853"/></g></g><g><g><path d="m35.184 24.401c-5.77-.345-7.977-8.186-7.999-8.265-.189-.702-.855-1.158-1.581-1.102-.726.065-1.3.642-1.361 1.368-.579 6.871-7.651 8.067-7.947 8.114-.763.115-1.313.79-1.273 1.56s.657 1.384 1.428 1.421c6.039.284 7.729 8.644 7.744 8.726.136.712.759 1.22 1.473 1.22.041 0 .083-.001.125-.005.765-.064 1.358-.694 1.376-1.461.13-5.709 8.335-8.633 8.416-8.662.677-.234 1.094-.913.997-1.622-.1-.707-.685-1.249-1.398-1.292zm-9.59 6.797c-.925-1.886-2.341-3.948-4.45-5.281 1.857-1.041 3.7-2.63 4.874-4.918 1.058 1.874 2.656 3.956 4.944 5.225-1.851 1.101-3.991 2.741-5.368 4.974z" fill="#3a312a"/></g></g><g><g><path d="m207.463 27.933c-11.348 0-20.547 9.199-20.547 20.547s9.199 20.547 20.547 20.547c11.347 0 20.547-9.199 20.547-20.547 0-11.347-9.199-20.547-20.547-20.547z" fill="#d7e057"/></g></g><g><g><path d="m207.463 26.434c-12.156 0-22.047 9.89-22.047 22.046 0 12.157 9.891 22.047 22.047 22.047s22.047-9.89 22.047-22.047c0-12.156-9.891-22.046-22.047-22.046zm0 41.093c-10.503 0-19.047-8.544-19.047-19.047s8.544-19.046 19.047-19.046 19.047 8.544 19.047 19.046-8.544 19.047-19.047 19.047z" fill="#3a312a"/></g></g><g><g><path d="m207.463 16.488c-.804 0-1.456.652-1.456 1.456v2.958c0 .804.652 1.456 1.456 1.456s1.456-.652 1.456-1.456v-2.958c0-.805-.652-1.456-1.456-1.456z" fill="#3a312a"/></g></g><g><g><path d="m207.463 74.602c-.804 0-1.456.652-1.456 1.456v2.958c0 .804.652 1.456 1.456 1.456s1.456-.652 1.456-1.456v-2.958c0-.804-.652-1.456-1.456-1.456z" fill="#3a312a"/></g></g><g><g><path d="m230.085 25.858c-.569-.569-1.49-.569-2.059 0l-2.092 2.092c-.569.569-.569 1.491 0 2.059s1.491.569 2.059 0l2.092-2.092c.569-.568.569-1.49 0-2.059z" fill="#3a312a"/></g></g><g><g><path d="m188.992 66.951c-.569-.569-1.49-.569-2.059 0l-2.092 2.092c-.569.569-.569 1.491 0 2.059.569.569 1.49.569 2.059 0l2.092-2.092c.569-.568.569-1.49 0-2.059z" fill="#3a312a"/></g></g><g><g><path d="m179.885 47.024h-2.958c-.804 0-1.456.652-1.456 1.456s.652 1.456 1.456 1.456h2.958c.804 0 1.456-.652 1.456-1.456s-.652-1.456-1.456-1.456z" fill="#3a312a"/></g></g><g><g><path d="m230.085 69.043-2.092-2.092c-.569-.569-1.491-.569-2.059 0-.569.569-.569 1.491 0 2.059l2.092 2.092c.569.569 1.491.569 2.059 0 .569-.568.569-1.49 0-2.059z" fill="#3a312a"/></g></g><g><g><path d="m188.992 27.95-2.092-2.092c-.569-.569-1.491-.569-2.059 0s-.569 1.491 0 2.059l2.092 2.092c.569.569 1.49.569 2.059 0s.569-1.491 0-2.059z" fill="#3a312a"/></g></g><g><g><path d="m133.82 23.546c-1.677.011-3.233.519-4.537 1.377 0-.046.006-.091.006-.137-.03-4.624-3.802-8.348-8.425-8.318-4.624.03-8.348 3.802-8.318 8.425 0 .046.007.091.008.137-1.315-.841-2.877-1.329-4.555-1.319-4.624.03-8.348 3.802-8.318 8.425.03 4.59 3.748 8.289 8.325 8.314v.005l26.023-.167v-.005c4.576-.084 8.247-3.83 8.217-8.42-.03-4.623-3.802-8.347-8.426-8.317z" fill="#8ac6dd"/></g></g><g><g><path d="m133.875 22.046h-.064c-1.122.007-2.226.205-3.269.581-.413-1.813-1.334-3.475-2.689-4.812-1.86-1.837-4.32-2.847-6.934-2.847h-.065c-2.637.017-5.108 1.06-6.961 2.936-1.34 1.357-2.238 3.031-2.628 4.847-1.028-.356-2.112-.539-3.212-.539h-.063c-5.443.035-9.843 4.492-9.809 9.935.034 5.331 4.362 9.699 9.679 9.802.048.005.097.007.146.007h.01l26.023-.167c.051 0 .101-.003.149-.008 5.316-.169 9.593-4.594 9.559-9.926-.036-5.423-4.458-9.809-9.872-9.809zm.126 16.738c-.035 0-.069.002-.104.005l-25.774.165c-.036-.003-.073-.004-.11-.004-3.743-.021-6.809-3.081-6.832-6.823-.024-3.789 3.039-6.892 6.828-6.916h.044c1.309 0 2.585.374 3.693 1.082.466.299 1.06.315 1.542.044s.777-.787.766-1.34l-.008-.115c-.012-1.835.691-3.565 1.981-4.872 1.289-1.306 3.01-2.032 4.846-2.043 1.793-.028 3.566.692 4.872 1.981 1.307 1.29 2.032 3.011 2.044 4.809-.002.032-.006.133-.006.165 0 .552.303 1.058.788 1.32s1.076.236 1.536-.067c1.111-.73 2.398-1.122 3.723-1.13h.045c3.769 0 6.847 3.054 6.871 6.828.024 3.742-3.002 6.842-6.745 6.911z" fill="#3a312a"/></g></g><g><g><path d="m202.956 98.62c-1.677.011-3.233.519-4.537 1.377 0-.046.006-.091.006-.138-.03-4.624-3.802-8.348-8.426-8.318s-8.348 3.802-8.318 8.426c0 .046.007.091.008.137-1.315-.841-2.877-1.329-4.554-1.319-4.624.03-8.348 3.802-8.318 8.426.029 4.589 3.748 8.288 8.324 8.314v.005l26.023-.167v-.005c4.576-.084 8.247-3.83 8.217-8.42-.029-4.624-3.802-8.348-8.425-8.318z" fill="#8ac6dd"/></g></g><g><g><path d="m209.945 99.966c-1.861-1.837-4.321-2.847-6.934-2.847h-.065c-1.123.007-2.228.205-3.271.582-1.008-4.387-4.943-7.66-9.621-7.66h-.064c-4.7.03-8.623 3.357-9.583 7.785-1.051-.364-2.191-.558-3.281-.541-2.637.017-5.109 1.06-6.962 2.936-1.854 1.876-2.864 4.362-2.847 6.999.034 5.331 4.363 9.699 9.679 9.802.048.005.097.007.146.007h.01l26.023-.167c.051-.001.101-.003.149-.008 5.317-.169 9.593-4.594 9.558-9.926-.018-2.637-1.061-5.109-2.937-6.962zm-.064 6.981c.024 3.742-3.001 6.842-6.744 6.911-.035 0-.069.003-.104.005l-25.774.165c-.036-.002-.073-.004-.11-.004-3.743-.021-6.809-3.081-6.832-6.823-.012-1.836.691-3.565 1.981-4.872 1.289-1.306 3.011-2.032 4.847-2.044h.044c1.308 0 2.584.374 3.692 1.082.466.299 1.061.315 1.542.044.482-.271.777-.787.766-1.34l-.008-.115c-.024-3.789 3.039-6.892 6.828-6.916h.045c3.769 0 6.847 3.053 6.871 6.791-.002.032-.006.133-.006.165 0 .552.303 1.059.788 1.32.486.262 1.077.236 1.536-.067 1.111-.731 2.398-1.122 3.723-1.13h.045c1.818 0 3.531.703 4.826 1.982 1.307 1.29 2.032 3.011 2.044 4.846z" fill="#3a312a"/></g></g><g><g><path d="m150.285 172.914-16.825 22.481h14.778l16.826-22.481z" fill="#f16c7a"/></g></g><g><g><path d="m166.404 172.243c-.254-.508-.772-.829-1.341-.829h-14.778c-.473 0-.918.223-1.201.601l-16.825 22.481c-.34.455-.395 1.062-.14 1.57.254.508.772.829 1.341.829h14.778c.473 0 .918-.223 1.201-.601l16.825-22.481c.34-.455.395-1.063.14-1.57zm-18.917 21.652h-11.031l14.58-19.481h11.031z" fill="#3a312a"/></g></g><g><g><path d="m139.4 161.082c-1.633 0-3.112.663-4.188 1.727-1.065 1.077-1.728 2.556-1.728 4.189 0 3.266 2.65 5.916 5.916 5.916h57.563l7.005-11.832z" fill="#f16c7a"/></g></g><g><g><path d="m205.271 160.339c-.267-.468-.764-.757-1.303-.757h-64.568c-1.972 0-3.834.768-5.255 2.173-1.394 1.409-2.16 3.271-2.16 5.244 0 4.089 3.326 7.416 7.415 7.416h57.563c.53 0 1.021-.28 1.291-.736l7.005-11.832c.274-.465.279-1.04.012-1.508zm-9.164 11.075h-56.708c-2.435 0-4.415-1.981-4.415-4.416 0-1.178.459-2.291 1.281-3.122.844-.835 1.957-1.294 3.134-1.294h61.938z" fill="#3a312a"/></g></g><g><g><path d="m234.211 131.048c-5.044-3.026-11.585-1.391-14.611 3.653l-35.943 60.695h-156.464c-5.881 0-10.649 4.767-10.649 10.649 0 5.881 4.768 10.649 10.649 10.649h162.493c3.74 0 7.207-1.963 9.132-5.17l39.046-65.865c3.025-5.044 1.39-11.585-3.653-14.611z" fill="#f16c7a"/></g></g><g><g><path d="m234.982 129.762c-2.783-1.67-6.05-2.156-9.197-1.369-3.148.787-5.802 2.753-7.476 5.543l-35.507 59.958h-89.014c-.828 0-1.5.671-1.5 1.5s.672 1.5 1.5 1.5h89.869c.53 0 1.021-.28 1.291-.736l35.938-60.687c1.257-2.095 3.255-3.576 5.626-4.168 2.372-.594 4.831-.228 6.927 1.03 4.325 2.595 5.732 8.226 3.134 12.559l-39.042 65.858c-1.645 2.74-4.65 4.442-7.845 4.442h-162.493c-5.045 0-9.149-4.104-9.149-9.149s4.104-9.149 9.149-9.149h52.445c.828 0 1.5-.671 1.5-1.5s-.672-1.5-1.5-1.5h-52.445c-6.699 0-12.149 5.45-12.149 12.149s5.45 12.149 12.149 12.149h162.493c4.242 0 8.233-2.26 10.421-5.905l39.042-65.859c3.447-5.743 1.578-13.22-4.167-16.666z" fill="#3a312a"/></g></g><g><g><path d="m228.08 216.689h-200.16c-6.307 0-11.42 5.113-11.42 11.42s5.113 11.42 11.42 11.42h200.16c6.307 0 11.42-5.113 11.42-11.42s-5.113-11.42-11.42-11.42z" fill="#87796f"/></g></g><g><g><path d="m228.08 215.189h-200.16c-7.124 0-12.92 5.796-12.92 12.92 0 7.125 5.796 12.92 12.92 12.92h104.573c.828 0 1.5-.671 1.5-1.5s-.672-1.5-1.5-1.5h-104.573c-5.47 0-9.92-4.45-9.92-9.92s4.45-9.92 9.92-9.92h200.16c5.47 0 9.92 4.45 9.92 9.92s-4.45 9.92-9.92 9.92h-81.574c-.828 0-1.5.671-1.5 1.5s.672 1.5 1.5 1.5h81.574c7.124 0 12.92-5.796 12.92-12.92s-5.796-12.92-12.92-12.92z" fill="#3a312a"/></g></g><g><g><path d="m233.443 132.339c-4.15-2.49-9.5-1.3-12.22 2.61 2.01 2.87 2.26 6.75.35 9.94l-39.04 65.86c-1.65 2.74-4.65 4.44-7.85 4.44h15c3.2 0 6.2-1.7 7.85-4.44l39.04-65.86c2.6-4.33 1.19-9.96-3.13-12.55z" fill="#d34e5c"/></g></g><g><g><path d="m207.463 29.436c-2.66 0-5.2.55-7.5 1.54 6.79 2.92 11.55 9.66 11.55 17.5 0 7.85-4.76 14.59-11.55 17.51 2.3.99 4.84 1.54 7.5 1.54 10.5 0 19.05-8.54 19.05-19.05 0-10.499-8.55-19.04-19.05-19.04z" fill="#b9c239"/></g></g><g><g><path d="m228.08 218.189h-15c5.47 0 9.92 4.45 9.92 9.92s-4.45 9.92-9.92 9.92h15c5.47 0 9.92-4.45 9.92-9.92s-4.45-9.92-9.92-9.92z" fill="#695b51"/></g></g></g></svg>