<svg id="Layer_1" enable-background="new 0 0 512 512" height="512" viewBox="0 0 512 512" width="512" xmlns="http://www.w3.org/2000/svg"><g><path d="m504.501 122.08v197.7l-28.33 20.55-13.09 9.49h-414.171l-41.409-30.04v-197.7z" fill="#eef7ff"/><path d="m504.501 122.08v197.7l-28.33 20.55v-218.25z" fill="#d8e5ef"/><path d="m7.501 122.08h497v34.12h-497z" fill="#d8e5ef"/><path d="m476.171 122.08h28.33v34.12h-28.33z" fill="#c3d8e5"/><g><path d="m504.498 319.776v151.3h-497v-151.3c20.71 0 20.71 20.04 41.41 20.04 20.71 0 20.71-20.04 41.42-20.04 20.7 0 20.7 20.04 41.41 20.04s20.71-20.04 41.42-20.04 20.71 20.04 41.42 20.04c20.7 0 20.7-20.04 41.41-20.04 20.7 0 20.7 20.04 41.41 20.04s20.71-20.04 41.42-20.04 20.71 20.04 41.42 20.04 20.71-20.04 41.41-20.04c20.72 0 20.72 20.04 41.43 20.04 5.61 0 9.7-1.47 13.09-3.61 9.14-5.77 13.23-16.43 28.33-16.43z" fill="#40d7ff"/><path d="m504.498 319.776v151.3h-497v-28.75h453.62c8.31 0 15.05-6.74 15.05-15.05v-91.07c9.14-5.77 13.23-16.43 28.33-16.43z" fill="#2aa6f2"/></g></g><g><path d="m104.085 392.399c4.143 0 7.5-3.357 7.5-7.5s-3.357-7.5-7.5-7.5h-47.795c-4.143 0-7.5 3.357-7.5 7.5s3.357 7.5 7.5 7.5z"/><path d="m152.085 392.399c4.143 0 7.5-3.357 7.5-7.5s-3.357-7.5-7.5-7.5h-17.795c-4.143 0-7.5 3.357-7.5 7.5s3.357 7.5 7.5 7.5z"/><path d="m231.29 417.474c-4.143 0-7.5 3.357-7.5 7.5s3.357 7.5 7.5 7.5h20.795c4.143 0 7.5-3.357 7.5-7.5s-3.357-7.5-7.5-7.5z"/><path d="m118.79 424.974c0 4.143 3.357 7.5 7.5 7.5h74.795c4.143 0 7.5-3.357 7.5-7.5s-3.357-7.5-7.5-7.5h-74.795c-4.143 0-7.5 3.357-7.5 7.5z"/><path d="m386.88 377.399h-67.795c-4.143 0-7.5 3.357-7.5 7.5s3.357 7.5 7.5 7.5h67.795c4.143 0 7.5-3.357 7.5-7.5s-3.358-7.5-7.5-7.5z"/><path d="m288.88 392.399c4.143 0 7.5-3.357 7.5-7.5s-3.357-7.5-7.5-7.5h-27.795c-4.143 0-7.5 3.357-7.5 7.5s3.357 7.5 7.5 7.5z"/><path d="m335.051 424.974c0 4.143 3.357 7.5 7.5 7.5h104.154c4.143 0 7.5-3.357 7.5-7.5s-3.357-7.5-7.5-7.5h-104.154c-4.143 0-7.5 3.357-7.5 7.5z"/><path d="m504.5 463.579h-91.412c-4.143 0-7.5 3.357-7.5 7.5s3.357 7.5 7.5 7.5h91.412c4.143 0 7.5-3.357 7.5-7.5s-3.357-7.5-7.5-7.5z"/><path d="m504.5 312.279c-13.391 0-20.342 6.725-25.927 12.128-4.746 4.592-8.175 7.909-15.496 7.909-7.322 0-10.751-3.317-15.497-7.909-5.585-5.403-12.536-12.128-25.926-12.128-13.389 0-20.34 6.725-25.924 12.129-4.745 4.591-8.174 7.908-15.493 7.908-7.32 0-10.749-3.317-15.494-7.908-5.585-5.404-12.535-12.129-25.925-12.129-13.389 0-20.339 6.725-25.923 12.129-4.745 4.591-8.174 7.908-15.493 7.908s-10.748-3.317-15.493-7.908c-5.584-5.404-12.534-12.129-25.923-12.129-13.388 0-20.338 6.726-25.922 12.129-4.744 4.591-8.172 7.908-15.489 7.908-7.319 0-10.748-3.317-15.493-7.908-5.584-5.404-12.534-12.129-25.922-12.129-13.389 0-20.34 6.725-25.924 12.129-4.745 4.591-8.174 7.908-15.493 7.908s-10.748-3.317-15.493-7.908c-5.584-5.404-12.534-12.129-25.923-12.129-13.388 0-20.338 6.725-25.923 12.129-4.744 4.591-8.172 7.908-15.491 7.908s-10.747-3.317-15.491-7.908c-5.585-5.404-12.534-12.129-25.922-12.129-4.143 0-7.5 3.357-7.5 7.5s3.357 7.5 7.5 7.5c7.318 0 10.746 3.317 15.49 7.908 5.585 5.403 12.534 12.129 25.923 12.129 13.388 0 20.338-6.725 25.923-12.129 4.744-4.591 8.172-7.908 15.491-7.908s10.748 3.317 15.493 7.908c5.584 5.404 12.534 12.129 25.923 12.129s20.339-6.725 25.923-12.128c4.745-4.592 8.174-7.909 15.494-7.909 7.318 0 10.747 3.317 15.491 7.908 5.585 5.403 12.535 12.129 25.924 12.129 13.388 0 20.337-6.725 25.921-12.129 4.744-4.591 8.172-7.908 15.49-7.908 7.319 0 10.748 3.317 15.493 7.908 5.584 5.404 12.534 12.129 25.923 12.129s20.339-6.725 25.923-12.129c4.745-4.591 8.174-7.908 15.493-7.908 7.32 0 10.749 3.317 15.495 7.909 5.585 5.403 12.535 12.128 25.924 12.128s20.339-6.725 25.923-12.128c4.745-4.592 8.174-7.909 15.494-7.909 7.321 0 10.75 3.317 15.496 7.909 5.585 5.403 12.536 12.128 25.927 12.128 13.39 0 20.341-6.725 25.926-12.128 4.746-4.592 8.175-7.909 15.497-7.909 4.143 0 7.5-3.357 7.5-7.5s-3.357-7.5-7.5-7.5z"/><path d="m378.231 463.579h-370.731c-4.143 0-7.5 3.357-7.5 7.5s3.357 7.5 7.5 7.5h370.731c4.143 0 7.5-3.357 7.5-7.5s-3.357-7.5-7.5-7.5z"/><path d="m504.5 148.697h-158.182v-19.118h158.182c4.143 0 7.5-3.357 7.5-7.5s-3.357-7.5-7.5-7.5h-107.324v-48.229c0-18.157-14.771-32.929-32.929-32.929s-32.929 14.771-32.929 32.929v13.229h-99.801v-13.229c0-18.157-14.771-32.929-32.929-32.929s-32.928 14.771-32.928 32.929v48.229h-158.16c-4.143 0-7.5 3.357-7.5 7.5s3.357 7.5 7.5 7.5h158.16v19.118h-61.234c-4.143 0-7.5 3.357-7.5 7.5s3.357 7.5 7.5 7.5h61.234v126.082c0 4.143 3.357 7.5 7.5 7.5s7.5-3.357 7.5-7.5v-20.299h150.658v20.299c0 4.143 3.357 7.5 7.5 7.5s7.5-3.357 7.5-7.5v-27.515c.003-.094.006-.188.006-.283s-.002-.189-.006-.283v-34.578c.007-.133.011-.267.011-.401s-.004-.269-.011-.401v-62.62h158.182c4.143 0 7.5-3.357 7.5-7.5s-3.357-7.501-7.5-7.501zm-158.182-82.347c0-9.886 8.043-17.929 17.929-17.929s17.929 8.043 17.929 17.929v48.229h-35.857v-48.229zm-15 28.229v20h-99.801v-20zm-132.729-46.158c9.886 0 17.929 8.043 17.929 17.929v13.229h-35.858v-13.229c0-9.886 8.043-17.929 17.929-17.929zm-17.929 46.158h35.857v20h-35.857zm150.658 35v19.118h-150.658v-19.118zm-150.658 69.379h150.658v20.261h-150.658zm150.658-15h-150.658v-20.261h150.658zm-150.658 70.522v-20.262h150.658v20.262z"/><path d="m7.5 163.697h61.961c4.143 0 7.5-3.357 7.5-7.5s-3.357-7.5-7.5-7.5h-61.961c-4.143 0-7.5 3.357-7.5 7.5s3.357 7.5 7.5 7.5z"/></g></svg>