<svg height="512" viewBox="0 0 256 256" width="512" xmlns="http://www.w3.org/2000/svg"><path d="m57 39v189a3 3 0 0 0 3 3h4.29a3 3 0 0 0 3-3v-182a3 3 0 0 1 3-3h115.42a3 3 0 0 1 3 3v182a3 3 0 0 0 3 3h4.29a3 3 0 0 0 3-3v-189a6 6 0 0 0 -6-6h-130a6 6 0 0 0 -6 6z" fill="#a4c9ff"/><path d="m67.29 209.667h121.42v10h-121.42z" fill="#a4c9ff"/><rect fill="#eaa97d" height="17" rx="4" width="240" x="8" y="231"/><path d="m244 250h-232a6.006 6.006 0 0 1 -6-6v-9a6.006 6.006 0 0 1 6-6h232a6.006 6.006 0 0 1 6 6v9a6.006 6.006 0 0 1 -6 6zm-232-17a2 2 0 0 0 -2 2v9a2 2 0 0 0 2 2h232a2 2 0 0 0 2-2v-9a2 2 0 0 0 -2-2z" fill="#3762cc"/><path d="m196 233h-4.29a5.006 5.006 0 0 1 -5-5v-182a1 1 0 0 0 -1-1h-115.42a1 1 0 0 0 -1 1v182a5.006 5.006 0 0 1 -5 5h-4.29a5.006 5.006 0 0 1 -5-5v-189a8.009 8.009 0 0 1 8-8h130a8.009 8.009 0 0 1 8 8v189a5.006 5.006 0 0 1 -5 5zm-125.71-192h115.42a5.006 5.006 0 0 1 5 5v182a1 1 0 0 0 1 1h4.29a1 1 0 0 0 1-1v-189a4 4 0 0 0 -4-4h-130a4 4 0 0 0 -4 4v189a1 1 0 0 0 1 1h4.29a1 1 0 0 0 1-1v-182a5.006 5.006 0 0 1 5-5z" fill="#3762cc"/><path d="m188.71 221.667h-121.42a2 2 0 0 1 -2-2v-10a2 2 0 0 1 2-2h121.42a2 2 0 0 1 2 2v10a2 2 0 0 1 -2 2zm-119.42-4h117.42v-6h-117.42z" fill="#3762cc"/><path d="m82 33h92v138.947h-92z" fill="#4671c6"/><rect fill="#a4c9ff" height="12.667" rx="3" width="28" x="48" y="121.987"/><rect fill="#a4c9ff" height="12.667" rx="3" width="28" x="180" y="121.987"/><path d="m205 136.654h-22a5.006 5.006 0 0 1 -5-5v-6.667a5.006 5.006 0 0 1 5-5h22a5.006 5.006 0 0 1 5 5v6.667a5.006 5.006 0 0 1 -5 5zm-22-12.667a1 1 0 0 0 -1 1v6.667a1 1 0 0 0 1 1h22a1 1 0 0 0 1-1v-6.667a1 1 0 0 0 -1-1z" fill="#3762cc"/><path d="m73 136.654h-22a5.006 5.006 0 0 1 -5-5v-6.667a5.006 5.006 0 0 1 5-5h22a5.006 5.006 0 0 1 5 5v6.667a5.006 5.006 0 0 1 -5 5zm-22-12.667a1 1 0 0 0 -1 1v6.667a1 1 0 0 0 1 1h22a1 1 0 0 0 1-1v-6.667a1 1 0 0 0 -1-1z" fill="#3762cc"/><rect fill="#a4c9ff" height="15" rx="2" width="160" x="48" y="156.946"/><path d="m206 173.946h-156a4 4 0 0 1 -4-4v-11a4 4 0 0 1 4-4h156a4 4 0 0 1 4 4v11a4 4 0 0 1 -4 4zm-156-15v11h156v-11z" fill="#3762cc"/><path d="m82 156.947h92v15h-92z" fill="#4671c6"/><g fill="#e0ebfc"><path d="m100.182 33h18v138.947h-18z"/><path d="m137.818 33h18v138.947h-18z"/><path d="m100.182 156.947h18v15h-18z"/><path d="m137.818 156.947h18v15h-18z"/></g><path d="m174 173.947h-92a2 2 0 0 1 -2-2v-138.947a2 2 0 0 1 2-2h92a2 2 0 0 1 2 2v138.947a2 2 0 0 1 -2 2zm-90-4h88v-134.947h-88z" fill="#3762cc"/><path d="m174 173.947h-92a2 2 0 0 1 -2-2v-15a2 2 0 0 1 2-2h92a2 2 0 0 1 2 2v15a2 2 0 0 1 -2 2zm-90-4h88v-11h-88z" fill="#3762cc"/></svg>